<?xml version="1.0" encoding="UTF-8"?>
<svg fill="#7D55FF" width="100pt" height="100pt" version="1.1" viewBox="0 0 100 100" xmlns="http://www.w3.org/2000/svg">
 <g>
  <path d="m2.1094 78.629c-1.1445-1.9023-1.3945-4.2109-0.6875-6.3203 2.3984-7.1406 4.2383-14.461 5.5078-21.887 0.37891-2.1875 1.6914-4.1016 3.5938-5.2383 1.9062-1.1406 4.2109-1.3945 6.3164-0.69531l2.6094 0.83984c-0.37891-1.5156-0.37891-3.1016 0-4.6172 1.1836-4.7266 5.6992-7.832 10.535-7.2539 4.8359 0.58203 8.4844 4.6719 8.5156 9.543 0.019531 2.4102-0.87109 4.7344-2.5 6.5117 3 0.57031 5.8594 1 8.6484 1.3906v-0.003906c1.3672 0.17969 2.3242 1.4336 2.1484 2.7969-0.17969 1.3633-1.4336 2.3242-2.7969 2.1445-3.6094-0.46094-7.3789-1.1016-11.219-1.8906-0.32812-0.066407-0.63672-0.19922-0.91016-0.39062-1.3906-0.96484-2.0391-2.6875-1.6328-4.3281l0.078125-0.32812 0.003906-0.003906c0.22266-0.86719 0.72656-1.6406 1.4297-2.1992 1.1445-0.88281 1.8047-2.2539 1.7812-3.6992-0.007812-2.375-1.7891-4.3672-4.1484-4.6406-2.3555-0.27734-4.5469 1.2539-5.1016 3.5625-0.24219 0.97266-0.15625 1.9961 0.23828 2.918 0.35938 0.82422 0.43359 1.7461 0.21875 2.6211l-0.078125 0.32812c-0.43359 1.625-1.8203 2.8164-3.4883 3-0.33594 0.039063-0.67969 0.007813-1-0.089843-1.6719-0.5-3.3203-1-4.9102-1.5508-0.73438-0.24609-1.5391-0.15625-2.2031 0.24219-0.66016 0.38672-1.1133 1.0469-1.2383 1.8008-1.3125 7.6758-3.2188 15.242-5.6992 22.629-0.24219 0.72266-0.16016 1.5117 0.22266 2.168s1.0312 1.1172 1.7773 1.2617c9.7227 1.6602 19.262 4.2734 28.48 7.8008 0.62891 0.22656 1.1406 0.69531 1.418 1.3047 0.27734 0.60938 0.30078 1.3008 0.0625 1.9258s-0.71875 1.1289-1.332 1.3945c-0.61719 0.26562-1.3086 0.27734-1.9297 0.023438-8.8906-3.3828-18.09-5.8867-27.469-7.4805-2.1875-0.37109-4.1055-1.6836-5.2422-3.5898z"/>
  <path d="m59.27 19.461c4.7031 1.1953 7.7891 5.6953 7.2148 10.516-0.57422 4.8164-4.6328 8.4648-9.4844 8.5234-2.4102 0.019531-4.7344-0.87109-6.5117-2.5-0.57031 3-1 5.8594-1.3906 8.6484h0.003906c-0.16016 1.2383-1.2148 2.168-2.4609 2.1719h-0.32031c-0.66406-0.082031-1.2656-0.42578-1.6719-0.95703s-0.58203-1.2031-0.48828-1.8633c0.46094-3.6094 1.1016-7.3789 1.8906-11.219 0.066407-0.32812 0.19922-0.63672 0.39062-0.91016 0.96484-1.3906 2.6875-2.0391 4.3281-1.6328l0.32812 0.078125 0.003906 0.003906c0.86719 0.22266 1.6406 0.72656 2.1992 1.4297 0.88281 1.1445 2.2539 1.8047 3.6992 1.7812 2.375-0.007812 4.3672-1.7891 4.6406-4.1484 0.27734-2.3555-1.2539-4.5469-3.5625-5.1016-0.97266-0.24219-1.9961-0.15625-2.918 0.23828-0.82422 0.35938-1.7461 0.43359-2.6211 0.21875l-0.32812-0.078125c-1.625-0.43359-2.8164-1.8203-3-3.4883-0.039063-0.33594-0.007813-0.67969 0.089843-1 0.5-1.6719 1-3.3203 1.5508-4.9102 0.24609-0.73438 0.15625-1.5391-0.24219-2.2031-0.38672-0.66016-1.0469-1.1133-1.8008-1.2383-7.6758-1.3125-15.242-3.2188-22.629-5.6992-0.72266-0.24219-1.5117-0.16016-2.168 0.22266s-1.1172 1.0312-1.2617 1.7773c-1.6602 9.7227-4.2734 19.262-7.8008 28.48-0.50781 1.2539-1.9297 1.875-3.1953 1.3867-1.2695-0.48438-1.9141-1.8906-1.4531-3.168 3.3828-8.8906 5.8867-18.09 7.4805-27.469 0.375-2.1914 1.6875-4.1094 3.5938-5.25 1.9062-1.1367 4.2188-1.3867 6.3242-0.67969 7.1406 2.3945 14.457 4.2383 21.879 5.5078 2.1875 0.37891 4.1016 1.6914 5.2383 3.5938 1.1406 1.9062 1.3945 4.2109 0.69531 6.3164-0.28125 0.85156-0.57031 1.7305-0.83984 2.6094 1.5078-0.375 3.0898-0.37109 4.5977 0.011719z"/>
  <path d="m65.109 10.23c8.9102 3.4062 18.137 5.9336 27.539 7.5391 2.1914 0.375 4.1094 1.6875 5.25 3.5977 1.1367 1.9062 1.3867 4.2148 0.67969 6.3242-2.3945 7.1406-4.2383 14.453-5.5078 21.879-0.37891 2.1875-1.6914 4.0977-3.5938 5.2383-1.9062 1.1367-4.2109 1.3906-6.3164 0.69141l-2.6094-0.83984c0.37891 1.5156 0.37891 3.1016 0 4.6211-1.082 4.2891-4.9375 7.2969-9.3594 7.2969-1.4492 0-2.8828-0.32031-4.1914-0.9375-3.3438-1.582-5.4844-4.9414-5.5-8.6406-0.019531-2.4102 0.87109-4.7344 2.5-6.5117-3-0.57031-5.8594-1-8.6484-1.3906v0.003906c-1.3672-0.17969-2.3242-1.4336-2.1484-2.7969 0.17969-1.3633 1.4336-2.3242 2.7969-2.1445 3.6094 0.46094 7.3789 1.1016 11.219 1.8906 0.32812 0.066407 0.63672 0.19922 0.91016 0.39062 1.3906 0.96484 2.0391 2.6875 1.6328 4.3281l-0.078125 0.32812-0.003906 0.003906c-0.22266 0.86719-0.72656 1.6406-1.4297 2.1992-1.1445 0.88281-1.8047 2.2539-1.7812 3.6992 0.007812 2.375 1.7891 4.3672 4.1484 4.6406 2.3555 0.27734 4.5469-1.2539 5.1016-3.5625 0.24219-0.97266 0.15625-1.9961-0.23828-2.918-0.35938-0.82422-0.43359-1.7461-0.21875-2.6211l0.078125-0.32812c0.43359-1.625 1.8203-2.8164 3.4883-3 0.33594-0.039063 0.67969-0.007813 1 0.089843 1.6719 0.5 3.3203 1 4.9102 1.5508 0.73438 0.24609 1.5391 0.15625 2.2031-0.24219 0.66016-0.38672 1.1133-1.0469 1.2383-1.8008 1.3125-7.6758 3.2188-15.242 5.6992-22.629 0.24219-0.72266 0.16016-1.5117-0.22266-2.168s-1.0312-1.1172-1.7773-1.2617c-9.7227-1.6602-19.262-4.2734-28.48-7.8008-1.2539-0.50781-1.875-1.9297-1.3867-3.1953 0.48438-1.2695 1.8906-1.9141 3.168-1.4531z"/>
  <path d="m51.262 88.172c7.6758 1.3125 15.242 3.2188 22.629 5.6992 0.71875 0.24219 1.5117 0.16016 2.168-0.22266 0.65625-0.38281 1.1172-1.0312 1.2617-1.7773 1.6602-9.7266 4.2734-19.266 7.8008-28.48 0.22656-0.62891 0.69531-1.1406 1.3047-1.418 0.60938-0.28125 1.3008-0.30078 1.9258-0.0625 0.625 0.23828 1.1289 0.71875 1.3945 1.332 0.26562 0.61328 0.27344 1.3086 0.023437 1.9297-3.4062 8.9102-5.9336 18.133-7.5391 27.539-0.375 2.1875-1.6875 4.1055-3.5977 5.2461-1.9062 1.1406-4.2148 1.3906-6.3242 0.68359-7.1406-2.3984-14.453-4.2422-21.879-5.5117-2.1875-0.37891-4.0977-1.6914-5.2383-3.5938-1.1367-1.9023-1.3906-4.2109-0.69141-6.3164 0.28125-0.85156 0.57031-1.7305 0.83984-2.6094-1.5156 0.38281-3.1016 0.38281-4.6211 0-4.8516-1.0742-8.1016-5.6523-7.5117-10.586 0.58594-4.9375 4.8242-8.6211 9.793-8.5234 2.4102-0.019531 4.7344 0.87109 6.5117 2.5 0.57031-3 1-5.8594 1.3906-8.6484h-0.003906c0.25-1.293 1.457-2.168 2.7617-2 1.3047 0.16406 2.2539 1.3164 2.168 2.6289-0.46094 3.6094-1.1016 7.3789-1.8906 11.219h0.003906c-0.070312 0.32812-0.20312 0.63672-0.39062 0.91016-0.96484 1.3906-2.6875 2.0391-4.332 1.6289l-0.32812-0.078125c-0.87109-0.22266-1.6445-0.72656-2.1992-1.4297-0.88672-1.1367-2.2539-1.7891-3.6914-1.7617-2.375 0.007812-4.3672 1.7891-4.6406 4.1484-0.27734 2.3555 1.2539 4.5469 3.5625 5.1016 0.97266 0.24219 1.9961 0.15625 2.918-0.23828 0.82422-0.35938 1.7461-0.43359 2.6211-0.21875l0.32812 0.078125c1.625 0.43359 2.8164 1.8203 3 3.4883 0.039063 0.33594 0.007813 0.67969-0.089843 1-0.5 1.6719-1 3.3203-1.5508 4.9102-0.24609 0.73438-0.15625 1.5391 0.24219 2.2031 0.40234 0.67188 1.0898 1.125 1.8711 1.2305z"/>
 </g>
</svg>
