<?xml version="1.0" encoding="UTF-8"?>
<svg fill="#7D55FF" width="100pt" height="100pt" version="1.1" viewBox="0 0 100 100" xmlns="http://www.w3.org/2000/svg">
 <g>
  <path d="m28.602 67.801h-19.301c-1.8008 0-3.3008 1.5-3.3008 3.3008 0 1.8008 1.5 3.3008 3.3008 3.3008h19.199c1.8008 0 3.3008-1.5 3.3008-3.3008 0.097657-1.8008-1.4023-3.3008-3.1992-3.3008z"/>
  <path d="m28.301 55.801c0-1.8008-1.5-3.3008-3.3008-3.3008h-19.199c-1.8008 0-3.3008 1.5-3.3008 3.3008s1.5 3.1992 3.3008 3.1992h19.199c1.8008 0 3.3008-1.3984 3.3008-3.1992z"/>
  <path d="m28.602 37.199h-19.301c-1.8008 0-3.3008 1.5-3.3008 3.3008s1.5 3.3008 3.3008 3.3008h19.199c1.8008 0 3.3008-1.5 3.3008-3.3008s-1.4023-3.3008-3.1992-3.3008z"/>
  <path d="m70.102 25.199v-5.1992h5.1016c1.8008 0 3.3008-1.5 3.3008-3.3008s-1.5-3.3008-3.3008-3.3008h-16.805c-1.8008 0-3.3008 1.5-3.3008 3.3008s1.5 3.3008 3.3008 3.3008h5.1016v5.1992c-15.398 1.6016-27.398 14.699-27.398 30.5 0 16.898 13.801 30.699 30.699 30.699 16.898 0 30.699-13.801 30.699-30.699 0-15.801-12-28.801-27.398-30.5zm20.598 27.301h-4c-1.8008 0-3.3008 1.5-3.3008 3.3008s1.5 3.3008 3.3008 3.3008h4c-0.60156 4.1992-2.1992 8.1016-4.6992 11.398l-2.8984-2.8984c-1.3008-1.3008-3.3984-1.3008-4.6016 0-1.1992 1.3008-1.3008 3.3984 0 4.6016l2.8984 2.8984c-3.3008 2.5-7.1016 4.1016-11.398 4.6992v-4.1016c0-1.8008-1.5-3.3008-3.3008-3.3008s-3.3008 1.5-3.3008 3.3008v4c-4.1992-0.60156-8.1016-2.3008-11.301-4.8008l2.8008-2.8008c1.3008-1.3008 1.3008-3.3984 0-4.6016-1.3008-1.3008-3.3984-1.3008-4.6016 0l-2.8008 2.8008c-2.3984-3.1992-4.1016-7.1016-4.6016-11.301h3.8984c1.8008 0 3.3008-1.5 3.3008-3.3008 0-1.8008-1.5-3.3008-3.3008-3.3008h-3.8984c0.60156-4.1992 2.3008-8 4.6992-11.199l2.8008 2.8008c0.60156 0.60156 1.5 1 2.3008 1 0.80078 0 1.6992-0.30078 2.3008-1 1.3008-1.3008 1.3008-3.3984 0-4.6016l-2.6992-2.6992c3.1992-2.3984 7.1016-4.1016 11.301-4.6992v3.8984c0 1.8008 1.5 3.3008 3.3008 3.3008 1.8008 0 3.3008-1.5 3.3008-3.3008v-3.8984c10.602 1.3047 19 9.8047 20.5 20.504z"/>
  <path d="m67.102 49.301c-1.8008-0.10156-3.6016 0.5-5 1.8984-2.5 2.5-2.5 6.6016 0 9.1992 2.5 2.5 6.6016 2.5 9.1992 0 1.3984-1.3984 2-3.1992 1.8984-5l7.3984-10.199c1.5-2.1016-1.1016-4.6992-3.1992-3.1992z"/>
 </g>
</svg>
