<?xml version="1.0" encoding="UTF-8"?>
<svg fill="#7D55FF" width="100pt" height="100pt" version="1.1" viewBox="0 0 100 100" xmlns="http://www.w3.org/2000/svg">
 <path d="m96.371 50c0-8.8594-2.5039-17.148-6.8398-24.195v-8.0156h-6.2344c-8.4297-8.6953-20.215-14.117-33.254-14.117-13.035 0-24.824 5.4219-33.25 14.117h-5.7969v7.332c-4.5977 7.1914-7.2773 15.727-7.2773 24.879s2.6797 17.688 7.2773 24.879v21.449h78.535v-22.133c4.3359-7.0469 6.8398-15.336 6.8398-24.195zm-2.4609 0c0 6.8398-1.5742 13.316-4.3789 19.094v-38.188c2.8047 5.7773 4.3789 12.254 4.3789 19.094zm-17.973 35.383c-0.76953-1.0586-2.3281-0.92187-3.1367-0.84375-0.34766 0.035157-0.77344 0.14453-1.2148 0.26953-0.34766 0.097656-0.92969 0.25781-1.0117 0.26562-0.15625-0.09375-0.48828-0.53906-0.66797-0.77734-0.12109-0.16406-0.24219-0.32031-0.35547-0.46094-0.41016-0.50391-0.67969-1.125-0.90234-2.0898-0.11328-0.5-0.19922-0.96484-0.28125-1.4102-0.26172-1.4375-0.51172-2.793-1.5273-4.3789-0.30078-0.46875-0.62891-0.92188-0.95703-1.3789-0.78516-1.0938-1.5273-2.1211-1.8438-3.2969l-0.39453-3.418c-0.26562-1.0586-1.1367-3.9883-1.3281-4.7695-0.23438-0.95312-0.71875-1.75-1.1445-2.4531-0.36719-0.60938-0.71875-1.1836-0.85938-1.7695-0.20703-0.85938-0.62891-1.625-1-2.3008-0.4375-0.78516-0.8125-1.4648-0.8125-2.1406 0.003906-1.3594-0.25781-2.6016-0.51562-3.8008-0.20312-0.96484-0.39453-1.8789-0.44922-2.8242-0.03125-0.53125-0.097656-1.0352-0.16406-1.5352-0.10938-0.82031-0.19531-1.5352-0.10547-2.3125 0.007813-0.050781 0.011719-0.097656 0.019531-0.14844 0.085938-0.5625 0.33203-1.1094 0.59766-1.6875 0.27734-0.60547 0.5625-1.2305 0.71875-1.9531 0.13672-0.63672 0.070313-1.2109-0.050781-1.7305 0.0625-0.19141 0.13281-0.36328 0.20312-0.43359 0.65625-0.64453 3.2969-0.67188 4.2891-0.67969 0.79688-0.007813 1.6172-0.082031 2.4414-0.16016 0.52344-0.050781 1.0352-0.097656 1.5312-0.125l1.2344 0.38281c1.4492 0.45312 3.4297 0.32422 5.0195 0.22656l0.625-0.035157c0.9375-0.050781 1.7461-0.3125 2.4648-0.54688 0.60547-0.19531 1.1719-0.37891 1.7383-0.41406 0.55469-0.035156 1.1094-0.03125 1.6562-0.027344 1.0469 0 2.1055 0.011719 3.1953-0.21094 0.51562-0.10547 1.0859-0.11719 1.6914-0.13281l0.52734-0.015625c0.48828-0.019531 0.87891-0.11719 1.1914-0.19531 0.17969-0.046874 0.35938-0.097656 0.5625-0.10937l0.14062-0.011719v37.516c-2.9297 4.6367-6.7148 8.6797-11.125 11.918zm11.137-55.059c-0.18359-0.23047-0.42969-0.43359-0.77344-0.62891-0.46875-0.26953-1.3867-0.57031-2.0039-0.59375-0.71875-0.003906-1.2461 0.26953-1.5781 0.46484-0.09375 0.054688-0.19141 0.11328-0.24609 0.12891-0.18359 0.0625-0.38672 0.10938-0.59375 0.16016-0.33594 0.082031-0.67969 0.16797-1.0039 0.28516-0.40234 0.14453-0.78516 0.33203-1.1602 0.51562-0.45703 0.22656-0.85156 0.41797-1.2266 0.48828-1.4141 0.26953-3.0625 0.17578-4.6562 0.078125-0.84766-0.050781-1.6875-0.097656-2.4922-0.097656h-0.015625c0.38672-0.14453 0.76562-0.29297 1.1484-0.44922 0.46875-0.19141 0.95312-0.38672 1.4805-0.57812 1.418-0.50781 2.4961-1.3398 3.543-2.1484l0.6875-0.52344c0.47266-0.35156 1.0625-0.51172 1.7461-0.69141 0.77734-0.20312 1.6602-0.44141 2.457-1.0312 0.26172-0.19531 0.46094-0.39453 0.64844-0.59375 0.21094-0.21875 0.28516-0.28906 0.44141-0.35156 0.41797-0.16406 1.0078-0.28906 1.5273-0.39844l0.51953-0.11328c0.53906 0.74219 1.0547 1.5 1.5469 2.2773v3.8008zm-18.27 4.2773c-1.1719-0.10547-2.3789 0.011719-3.543 0.12109-0.75391 0.070313-1.5078 0.14453-2.3594 0.15234-0.63281 0.007812-1.2812 0.023438-1.9219 0.070312 0.015625-0.011718 0.03125-0.03125 0.046875-0.035156 0.46094-0.23828 1.0859-0.29688 1.7422-0.35938 0.54297-0.054687 1.1055-0.10547 1.6758-0.26172 0.36719-0.097656 0.6875-0.23828 0.98828-0.39453 0.9375 0.10156 1.9062 0.20312 2.8359 0.035157 1.1484-0.20703 1.9805-0.34375 3.0625-0.34375 0.76172 0 1.5508 0.046874 2.3516 0.09375 1.7422 0.10156 3.5469 0.20703 5.2578-0.11719 0.70312-0.13281 1.2852-0.42188 1.8555-0.69531 0.29688-0.14453 0.59375-0.29688 0.91016-0.41016 0.23828-0.085937 0.49609-0.14453 0.74219-0.20703 0.27344-0.066406 0.54688-0.13672 0.78516-0.21484 0.30078-0.097656 0.52734-0.23047 0.71484-0.33984 0.085937-0.050781 0.21094-0.12109 0.25391-0.12891 0.16406 0.007813 0.64062 0.15234 0.83984 0.25 0.035156 0.17578 0.10156 0.39844 0.23438 0.66406 0.11328 0.23047 0.23828 0.42188 0.36719 0.58594l-0.90234 0.76562-0.16016 0.003907c-0.68359 0.015624-1.3945 0.035156-2.1172 0.17969-0.84766 0.17188-1.7383 0.17188-2.6992 0.15625-0.60547 0-1.2109-0.007813-1.8203 0.03125-0.875 0.054687-1.6211 0.29688-2.3438 0.52734-0.62891 0.20312-1.2266 0.39844-1.8398 0.42969l-0.64453 0.039063c-0.87891 0.054687-2.8711-0.125-2.8711-0.125zm-16.262 45.062c0.11719 0.39063 0.22266 0.73047 0.23828 1.0664 0.035156 0.71484-0.042969 1.3789-0.125 2.082-0.058594 0.49609-0.11719 0.99609-0.14062 1.5273-0.11328 2.4219 0.078125 4.4883 0.60547 6.5039l0.14062 0.53906 0.5 0.25c0.027343 0.015626 0.054687 0.023438 0.082031 0.039063 0.5 0.56641 1.2812 1.2188 2.0195 1.6367-0.082031 0.003906-0.16406 0.003906-0.24609 0.007812-1.0664 0.039063-2.168 0.074219-3.1562-0.03125-0.16797-0.019531-0.26172-0.046875-0.28516-0.046875h-0.003906c-0.023437-0.054687-0.078125-0.23047-0.10156-0.69922-0.019531-0.32031 0.082032-0.74609 0.1875-1.1953 0.17578-0.73828 0.375-1.5781 0.16016-2.4492-0.15234-0.62109-0.14062-1.2695-0.125-1.9531 0.019531-0.85547 0.039062-1.8242-0.27734-2.8555-0.16016-0.52734-0.41797-1.0547-0.66406-1.5625-0.33594-0.69531-0.68359-1.418-0.69141-1.9375-0.023437-1.4414 0.16406-2.8242 0.36328-4.2852 0.22266-1.6406 0.45312-3.3398 0.36719-5.1445-0.035156-0.83984 0.007813-2.6367 0.054687-4.543 0.027344-1.125 0.050782-2.0898 0.0625-2.9414 0.29297 0.64453 0.60547 1.2656 0.96094 1.7852 0.42969 0.63281 0.92578 1.1719 1.4023 1.6953 0.21875 0.23828 0.43359 0.47656 0.63672 0.71094-0.12891 1.5625-0.21094 2.6562-0.30859 4.0039-0.097657 1.3438-0.80078 2.4141-1.0898 3.0117-0.60938 1.2656-0.89844 1.8594-0.91016 2.8984-0.003907 0.73438 0.18359 1.3477 0.34375 1.8867zm-21.844 5.5078c-0.20312 0.50781-0.54297 1.1445-0.83984 1.7148-0.16797 0.31641-0.33203 0.625-0.46484 0.89453-0.042969 0.089844-0.125 0.25781-0.19922 0.38672-0.011718-0.003907-0.019531-0.011719-0.03125-0.015625-0.050781-0.035156-0.10156-0.085938-0.15234-0.13281-0.19531-0.17969-0.46484-0.41797-0.84375-0.58594-0.26953-0.12109-0.55859-0.21094-0.84766-0.28906 0.16797-0.12109 0.33594-0.23828 0.46484-0.32422 0.34766-0.23828 0.66016-0.46094 0.86328-0.64453 1.3477-1.2227 2.0391-2.6562 2.2344-4.6484 0.23438-2.3984 0.67969-4.3086 1.3477-5.8398 0.39844-0.91406 1.0938-1.6758 1.8281-2.4844 0.65234-0.71484 1.3281-1.457 1.8633-2.3672 0.21484-0.36328 0.38281-0.72266 0.54688-1.0664 0.24609-0.52734 1.4062-3.4805 1.7578-4.1992 0.58203-1.1992 1.9922-4.125 2.1719-4.75 0.23828-0.83984 0.625-1.7148 1.1445-2.6523v6.1172c-0.003907 0.64062 0.007812 1.2617 0.097656 1.8945-0.45312 0.71875-0.90625 1.418-1.4219 2.0781-0.55859 0.71094-1.1797 1.3711-1.8398 2.0664-0.41406 0.44141-0.82812 0.87891-1.2266 1.3281-1.043 1.1797-1.3398 2.4258-1.6055 3.5234-0.19531 0.82422-0.36719 1.5312-0.82031 2.1445-1.2031 1.6172-2.1484 3.4531-2.9414 5.043-0.30469 0.60938-0.50781 1.1992-0.70312 1.7695-0.11719 0.33203-0.23438 0.67578-0.38281 1.0391zm49.129-62.348c0.054687-0.066407 0.10547-0.13281 0.17578-0.19531 0.36719-0.31641 0.76953-0.53906 1.1953-0.77344 0.46484-0.25781 0.96484-0.53125 1.4219-0.9375 0.48047 0.54688 0.78906 0.94531 0.98047 1.2344-0.35156 0.085937-0.70312 0.1875-1.0234 0.31641-0.65625 0.25781-1.0312 0.64453-1.3086 0.92969-0.10547 0.10547-0.20703 0.22266-0.35156 0.32812-0.41406 0.30859-0.97266 0.45313-1.6172 0.62891-0.8125 0.21484-1.7305 0.46094-2.5859 1.0938-0.24609 0.18359-0.48438 0.36719-0.72266 0.55078-0.93359 0.72266-1.8164 1.4023-2.8672 1.7773-0.5625 0.19922-1.082 0.41016-1.5781 0.61328-1.0664 0.43359-1.9844 0.80469-3.1562 1.0078-1.3008 0.22266-2.1719 0.91016-2.9414 1.5195-0.20703 0.16406-0.39844 0.30078-0.59375 0.4375-0.32031-0.027344-0.63672-0.046875-0.9375-0.046875h-0.023438c-0.55859 0-1.0391-0.17578-1.6523-0.39844-0.39453-0.14453-0.79297-0.28906-1.2305-0.39844-0.35156-0.089844-0.69922-0.13281-1.0508-0.17188 0.9375-0.019532 1.8906-0.082032 2.8164-0.45312 0.57031-0.23047 1.2383-0.35156 1.9492-0.48438 0.99609-0.18359 2.0312-0.375 2.9727-0.89062 0.63672-0.34766 1.1953-0.73047 1.7383-1.1016 0.84766-0.58203 1.6445-1.1328 2.6172-1.4414 0.55078-0.17969 1.1953-0.34375 1.8711-0.51953 1.793-0.46094 3.8242-0.98438 5.2031-1.9648 0.33984-0.23047 0.54688-0.48047 0.69922-0.66016zm-42.711 7.7227c-0.93359-0.44922-1.8828-0.67188-2.8008-0.87109-0.36328-0.078125-0.72266-0.15625-1.082-0.25-0.76953-0.20312-1.543-0.37891-2.3164-0.54688-1.6484-0.36719-3.2109-0.71484-4.6758-1.3555-0.67578-0.29297-1.3047-0.72266-1.9688-1.1719-0.75391-0.51172-1.5352-1.0391-2.4648-1.4375-0.28125-0.12109-0.54688-0.27344-0.80469-0.44141l0.1875 0.09375c0.85547 0.39453 1.7773 0.43359 2.5898 0.46875 0.54688 0.023438 1.0586 0.046875 1.4609 0.16406 1.1914 0.35547 2.3086 0.96875 3.4883 1.6133 1.2422 0.68359 2.5273 1.3867 3.9766 1.8203 1.5977 0.48047 3.2383 0.78516 4.8242 1.082 0.93359 0.17578 1.8438 0.34766 2.7305 0.54688-0.027344 0.003906-0.054688 0.003906-0.082031 0.003906-1.0117 0.082031-2.0352 0.17969-3.0625 0.28125zm-0.51953 2.5195c0.0625 0.046875 0.12109 0.09375 0.18359 0.14062 0.097656 0.078125 0.20703 0.16406 0.34375 0.26172 0.57812 0.42188 1.0859 0.60938 1.5742 0.78906 0.15234 0.058594 0.3125 0.11719 0.48828 0.1875 0.33984 0.14453 0.58594 0.39844 0.80078 0.75391-1.3555-0.035157-2.7656-0.38281-4.0625-0.71094-1.1055-0.27344-2.6758-0.28125-3.6719-0.16406-0.64453 0.078125-1.1641 0.30859-1.582 0.49219-0.34766 0.15234-0.62109 0.27344-0.89844 0.29688-1.5 0.10156-3.2539-0.18359-4.8594-0.77344-0.87109-0.32422-1.7461-0.44922-2.6094-0.48828 0.61328-0.050781 1.2109-0.14062 1.7969-0.23047 1.0117-0.15234 1.9688-0.29688 2.9023-0.22266 3.1836 0.25781 6.4297-0.027344 9.5938-0.33203zm7.3633 22.586c-0.042969-0.76953-0.085938-1.5664 0.074218-2.1055 0.24609-0.83203 0.5625-1.6406 0.87109-2.418 0.82422-2.0859 1.6758-4.2422 1.2266-7.0391-0.16406-1.0195-0.49609-1.9609-0.81641-2.875-0.26562-0.75781-0.51562-1.4727-0.66016-2.1914-0.23047-1.1406-0.68359-1.8867-1.1172-2.6094-0.14453-0.23828-0.29297-0.48828-0.44531-0.76953l-0.44922-0.83984-0.089843 0.023437c-0.33594-0.78906-0.80078-1.5664-1.5508-2.1406 1.1328-0.0625 2.1836-0.066406 3.1562 0.023438 0.28516 0.027343 0.60547 0.070312 0.94531 0.11328 1.1875 0.15234 2.5977 0.31641 3.8008 0.085937 0.23828 0.015625 0.46484 0.019532 0.68359 0.019532v0.078124c0.1875 0 0.35938-0.015624 0.54297-0.019531 0.019532 0 0.039063 0.007813 0.0625 0.007813 0.039063 0 0.078126-0.011719 0.11719-0.015625 0.94531-0.03125 1.8594-0.10547 2.7344-0.1875 1.4609-0.14062 2.8398-0.27344 4.332-0.15234 0.35156 0.03125 0.70703 0.046875 1.0664 0.0625 0.46875 0.019531 0.91016 0.050781 1.332 0.10547-0.39062 0.23047-0.67578 0.51562-0.89844 0.75-0.097656 0.10547-0.23438 0.25391-0.29688 0.28516-0.050781 0.03125-0.22266 0.066406-0.35156 0.089844-0.30469 0.058594-0.68359 0.13672-1.0742 0.35547-2.1289 1.2031-1.5273 3.0234-1.2031 4.0039 0.015625 0.042969 0.027344 0.085937 0.042969 0.12891-0.027344 0.11328-0.0625 0.23047-0.085938 0.33984-0.039062 0.16406-0.074218 0.32031-0.11719 0.46094-0.39453 1.3984-0.75391 2.8398-0.94531 4.2461-0.003906 0.023438-0.011718 0.046875-0.015625 0.070312-0.015625 0.097657-0.015625 0.18359-0.023437 0.27734-0.14844 1.2852-0.15625 2.5469 0.097656 3.7266 0.58984 2.7422 0.37109 4.8828 0.097656 7.5938l-0.10547 1.1172c-0.17578 1.8398-0.19531 3.7227-0.21484 5.543-0.007813 0.82031-0.03125 1.6328-0.054688 2.4453-0.042968-0.058594-0.09375-0.10938-0.13281-0.16797-1.0234-1.5039-1.7852-4.1484-2.2891-5.8984-0.37891-1.3203-0.55859-1.9258-0.82422-2.3047-0.28906-0.42188-0.73437-0.66016-1.207-0.66016-0.039062 0-0.082031 0.003906-0.12109 0.003906-1.0078 0.089844-1.4531 1.0586-1.9727 2.1875-0.13672 0.30078-0.26562 0.58984-0.38281 0.77344-0.65234 1.0312-1.2852 1.8086-2.1133 2.6016-0.60547 0.57422-1.1172 1.1914-1.5938 1.8203v-5.8594c0.007812-0.34375-0.011719-0.71094-0.03125-1.0859zm3.9883 19.398c0.054687-0.55078 0.28906-0.83203 0.77734-1.3672 0.050782-0.054688 0.10156-0.10938 0.14844-0.16797-0.070312 0.80859-0.17969 1.6211-0.29297 2.457-0.085937 0.64062-0.17578 1.2891-0.24219 1.9492-0.26562-1.0078-0.47266-1.9648-0.39062-2.8711zm0.65625 7.4805c0.003906-0.023438 0.007812-0.050781 0.015625-0.074219 0.15625 0.39453 0.34375 0.77734 0.51562 1.1406 0.21484 0.44531 0.41797 0.86719 0.52734 1.2188 0.19922 0.64844 0.1875 1.3125 0.17188 2.0781-0.015626 0.60156-0.027344 1.2656 0.074218 1.9727-0.003906-0.003907-0.003906-0.007813-0.003906-0.007813-0.13672-0.35547-0.28906-0.71875-0.44531-1.0898-0.5625-1.3359-1.1445-2.7227-1.0469-4.0234 0.03125-0.39844 0.11328-0.80469 0.19141-1.2148zm-4.9375-5.4766c0.48047-1.7539 0.60156-2.7539 0.73828-4.4492 0.13281-1.6953-0.12109-5.9297-0.12109-5.9297-0.007812-0.019531-0.011718-0.042969-0.019531-0.0625 0.91406-1.4805 1.7891-2.8789 3.0234-4.0586 0.14844-0.14063 0.28125-0.28516 0.42188-0.42578-0.26953 1.5156-0.40625 2.7969-0.40625 2.8242-0.007813 0.58203 0.089843 1.3633 0.19922 2.2695 0.14453 1.1797 0.38281 3.1484 0.14844 3.7578-0.14844 0.39062-0.41406 0.67969-0.74219 1.0469-0.56641 0.62109-1.2734 1.3984-1.4062 2.7852-0.14453 1.5078 0.25391 2.9766 0.60547 4.2695 0.082031 0.29688 0.16016 0.59375 0.23047 0.88281 0.14453 0.58594 0.003906 1.3164-0.14844 2.0898-0.097656 0.50781-0.19141 1.0078-0.23047 1.4961-0.14453 1.8945 0.58984 3.6328 1.2305 5.1602 0.14453 0.34766 0.28906 0.6875 0.41406 1.0156 0.10547 0.27344 0.14453 0.64063 0.1875 1.0273 0.0625 0.59766 0.13672 1.2734 0.46094 1.9609 0.035156 0.070312 0.070313 0.14453 0.11328 0.21094-0.62109-0.050781-1.3164-0.089843-1.9609-0.12109 0.007812-0.03125 0.011719-0.058594 0.019531-0.089844 0.046875-0.21875 0.10156-0.45312 0.15234-0.77344 0.15625-0.92969 0.33594-1.9844-0.17969-3.2656-0.11328-0.28516-0.23828-0.56641-0.36719-0.84766-0.24609-0.53906-0.47656-1.0508-0.60938-1.5938-0.23047-0.95312-0.55859-1.6953-0.87109-2.4102-0.15234-0.34375-0.30859-0.69922-0.46484-1.0977-0.69141-1.7891-0.59375-5.0273-0.41797-5.6719zm34.73-56.289c-0.17969 0.15234-0.32031 0.3125-0.45703 0.48047-0.10547 0.125-0.16016 0.19141-0.23047 0.23828-1.0117 0.71484-2.8086 1.1797-4.3945 1.5898-0.72656 0.1875-1.4219 0.36719-2.0117 0.55859-1.3086 0.42188-2.2969 1.0977-3.25 1.7539-0.48828 0.33594-0.98047 0.67578-1.5273 0.97656-0.59766 0.32422-1.3945 0.47266-2.2383 0.62891-0.79687 0.14844-1.6172 0.30078-2.4141 0.62109-0.64062 0.25781-1.4727 0.26953-2.3516 0.28516-0.86719 0.015624-1.7656 0.03125-2.668 0.26953-0.57422 0.14844-1.0742 0.4375-1.5117 0.6875-0.24219 0.13672-0.5 0.28125-0.72266 0.37109 1.0898-1.9609 1.7891-4.2461 1.7891-5.7305 0-1.1875-0.34766-2.2891-0.91406-3.2461h23.613c-0.23828 0.14844-0.47266 0.3125-0.71094 0.51562zm-24.453 2.7305c0 2.5156-2.1484 6.1875-3.3711 6.9062-0.21875 0.03125-0.4375 0.050781-0.65625 0.0625-1.2773-0.5625-3.8867-4.4883-3.8867-6.9688 0-2.1836 1.7734-3.957 3.957-3.957 2.1836-0.003906 3.957 1.7734 3.957 3.957zm-8.0625 6.2305c-0.34766-0.14453-0.71094-0.33203-0.98437-0.47656-0.44531-0.23828-0.86719-0.46094-1.2891-0.60547-1.8516-0.63672-3.7695-0.99219-5.6211-1.3438-1.5898-0.29688-3.0977-0.57812-4.5703-1.0195-1.1953-0.35938-2.3125-0.97266-3.4961-1.6211-1.2422-0.67969-2.5234-1.3828-3.9648-1.8125-0.69531-0.20703-1.3906-0.23828-2.0625-0.26562-0.64453-0.027343-1.2539-0.054687-1.668-0.24609-0.5-0.23047-0.875-0.65625-1.3047-1.1484-0.26172-0.30078-0.55859-0.62891-0.91016-0.93359h24.48c-0.56641 0.95703-0.91406 2.0586-0.91406 3.2461-0.007813 1.7188 0.94922 4.2188 2.3047 6.2266zm-28.516-7.8828c0.66406-0.13281 0.91797 0.0625 1.6953 0.95312 0.23828 0.27344 0.50781 0.57812 0.82031 0.87109-0.71875-0.51953-1.5391-1.0625-2.6523-1.3398-0.15234-0.039063-0.3125-0.070313-0.46875-0.10547-0.046875-0.011718-0.10156-0.019531-0.15234-0.03125 0.11328-0.125 0.33594-0.26562 0.75781-0.34766zm-2.6523 2.1875c0.47656 0.375 1.0742 0.50391 1.5469 0.60156 0.12109 0.023438 0.25 0.050782 0.37109 0.082032 0.80469 0.19922 1.4062 0.64453 2.1055 1.1602 0.58984 0.4375 1.2578 0.93359 2.1055 1.2969 0.71484 0.30859 1.3633 0.74609 2.0547 1.2148 0.72656 0.49219 1.4805 1.0039 2.3633 1.3906 1.3203 0.57422 2.6797 0.9375 4.0234 1.25-0.69531-0.007813-1.3945-0.023438-2.0781-0.078125-1.2109-0.09375-2.3594 0.074219-3.4688 0.23828-0.74219 0.11328-1.4453 0.21875-2.1367 0.23828-1.1367 0.039063-1.9961-0.32031-3.0977-0.76562-0.43359-0.17578-0.87891-0.35547-1.3555-0.52344-0.26172-0.089844-0.72656-0.1875-1.2539-0.28906-0.48047-0.09375-1.4375-0.28125-1.793-0.4375l-0.64453-0.91016-0.003906-2.6602c0.40625-0.61328 0.82812-1.2148 1.2617-1.8086zm5.9453 9.8125c-0.085937 0.003906-0.17578 0.003906-0.26172 0.007812-1.1523 0.027344-2.2422 0.0625-3.2461-0.21094-0.69531-0.18359-1.3633-0.23828-2.0508-0.27344-0.019531-0.054688-0.035156-0.10547-0.039062-0.16797-0.003906-0.027344-0.007812-0.058594-0.011719-0.085938l0.10938-0.58594c0.011719-0.11719 0.015625-0.22266 0.019532-0.31641 0.078124 0.015624 0.15625 0.03125 0.23828 0.046874 0.39062 0.078126 0.73828 0.14063 0.92969 0.20313 0.43359 0.14844 0.83984 0.3125 1.2305 0.47266 0.94141 0.38672 1.9141 0.78516 3.082 0.91016zm-7.207 1.9062l1.0977 0.054688c0.74219 0.03125 1.3828 0.058593 1.9648 0.21484 1.3516 0.35938 2.6758 0.32031 3.9453 0.29297 1.293-0.039062 2.5156-0.066406 3.5977 0.33203 1.918 0.71094 4.0625 1.0547 5.8789 0.92188 0.71094-0.046875 1.2734-0.30078 1.7266-0.49609 0.33594-0.14844 0.59766-0.26562 0.875-0.29687 0.78125-0.089844 2.0234-0.085938 2.7852 0.10547 1.7422 0.44141 3.6797 0.90625 5.6484 0.74219 0.10156 0.25391 0.21094 0.51172 0.33594 0.76562 0.91406 1.8242 1.5664 4.3281 2.1055 6.5391 0.22656 0.91406-0.14844 2.0039-0.53906 3.1562-0.19141 0.55859-0.375 1.1094-0.50391 1.6445-0.078125 0.33594-0.15234 0.67188-0.23047 1.0117-0.32812 1.5156-0.64453 2.9453-1.4414 4.1055-1.3555 1.9688-2.207 3.6523-2.6758 5.3047-0.22266 0.77734-1.1953 2.5508-1.7305 4.0781-0.53516 1.5312-1.7812 3.8945-2.0664 4.5078-0.13281 0.28125-0.26172 0.56641-0.4375 0.85938-0.40625 0.69141-0.96875 1.3047-1.5625 1.957-0.83984 0.91797-1.7031 1.8672-2.2695 3.1562-0.77344 1.7695-1.2773 3.9258-1.5391 6.5859-0.13672 1.375-0.55078 2.2656-1.4375 3.0664-0.14453 0.12891-0.36328 0.27734-0.60547 0.44141-0.48438 0.33594-1.0312 0.71484-1.4414 1.1602-4.5312-3.1719-8.4375-7.1758-11.492-11.789zm18.152 53.117c0.125-0.25391 0.27344-0.53516 0.43359-0.83594 0.32422-0.61719 0.69531-1.3203 0.94922-1.9453 0.16016-0.40234 0.29297-0.78516 0.42188-1.1562 0.1875-0.54297 0.34766-1.0117 0.58203-1.4766 0.74219-1.4961 1.6289-3.2188 2.7109-4.6719 0.75781-1.0195 1.0156-2.0898 1.2383-3.0352 0.22656-0.94141 0.42188-1.7539 1.0586-2.4727 0.37891-0.42969 0.77344-0.84766 1.168-1.2656 0.67188-0.71094 1.3633-1.4414 1.9883-2.2422 0.16016-0.20312 0.29297-0.41406 0.44141-0.62109 0.082032 3.3672-0.78125 5.3555-1.1211 8.3398-0.23047 2.0391-0.60547 3.7461 0.32031 6.1367 0.16797 0.4375 0.33984 0.82812 0.50781 1.2031 0.29687 0.67578 0.55469 1.2578 0.73437 1.9961 0.18359 0.76563 0.48828 1.4375 0.75781 2.0312 0.11328 0.25 0.22656 0.49609 0.32812 0.75 0.25781 0.64063 0.16797 1.1562 0.023438 2.0078-0.035157 0.20312-0.078126 0.39453-0.11719 0.57422-0.085938 0.37891-0.16797 0.8125-0.14453 1.2461-4.4844-0.63281-8.7578-1.9414-12.699-3.8242 0.16406-0.25391 0.30469-0.51172 0.41797-0.73828zm30.094 3.418c-0.0625-0.10156-0.125-0.20312-0.20312-0.3125l-0.13672-0.1875-0.19141-0.12109c-1.0898-0.69141-2.1016-0.51953-2.8359-0.39453-0.4375 0.074219-0.72266 0.11328-0.96094 0.046875-0.46094-0.14062-1.5273-1.0078-1.7969-1.4102l-0.23047-0.34766c-0.33984-1.5664-0.45703-3.2031-0.36719-5.1016 0.023438-0.46875 0.074219-0.91406 0.12891-1.3555 0.09375-0.77344 0.1875-1.5742 0.14062-2.4961-0.03125-0.63672-0.19531-1.1797-0.33984-1.6562-0.12891-0.42188-0.23828-0.78906-0.23438-1.1445 0.011719-0.66797 0.25-1.5117 0.69531-2.4414 0.55469-1.1523 0.89453-3.4375 0.85547-4.6523 0.73047 1.6133 1.2422 3.3242 1.6719 4.9883 0.46875 1.8086 1.6289 3.3008 2.5586 4.5039 0.42969 0.55078 0.64453 1.0977 0.89844 1.7305 0.19531 0.48438 0.41406 1.0352 0.75 1.6055 0.55859 0.96094 1.3281 1.625 2.0078 2.2148 0.71484 0.61719 1.3281 1.1523 1.6758 1.9414 0.15234 0.34375 0.25391 0.79297 0.35938 1.2656 0.11719 0.51953 0.24609 1.0938 0.47656 1.6445-1.5977 0.65625-3.2383 1.2148-4.9219 1.6797zm11.203-4.8594c-0.25781 0.10547-0.51172 0.21484-0.76953 0.3125-0.63672 0.24609-1.2969 0.5-2.0312 0.91406-0.54687 0.30859-0.94922 0.52734-1.3477 0.62891-0.078125-0.26562-0.14453-0.55859-0.21484-0.85547-0.12891-0.56641-0.26172-1.1484-0.50781-1.7109-0.57031-1.3008-1.5-2.1055-2.3203-2.8125-0.60938-0.52734-1.1367-0.98438-1.4883-1.5898-0.24219-0.41797-0.41016-0.83984-0.59375-1.2891-0.28125-0.69922-0.60156-1.4961-1.2383-2.3203-0.83594-1.0742-1.7812-2.293-2.1211-3.6094-0.66406-2.5703-1.4961-5.2891-3.0508-7.7109-0.058594-0.09375-0.12891-0.17187-0.19141-0.26172 0.007812-0.23047 0.011718-0.46094 0.015625-0.6875 0.003906-0.30859 0.007812-0.62109 0.023437-0.92969 0.058594-1.2109 0.070313-2.4414 0.085938-3.6797 0.011718-1.2812 0.046875-2.5859 0.11328-3.8711 0.28516 0.51953 0.55078 1.0195 0.66406 1.5 0.23047 0.96094 0.71875 1.7617 1.1484 2.4688 0.36719 0.60547 1.6289 2.8086 2.0117 4.4102 0.38281 1.6016 0.12109 3.7812 0.37109 4.7734l0.20703 0.81641c0.42969 1.6094 1.3438 2.875 2.2266 4.1016 0.30078 0.42187 0.60547 0.83984 0.88281 1.2695 0.75781 1.1758 0.94141 2.1953 1.1797 3.4883 0.085938 0.48047 0.17969 0.98047 0.30469 1.5195 0.21094 0.89844 0.55469 2.0664 1.3945 3.0938 0.09375 0.11328 0.1875 0.24219 0.28516 0.375 0.50391 0.67578 1.1289 1.5117 2.082 1.6875 0.72656 0.13281 1.5195-0.085937 2.2188-0.27734 0.29687-0.082032 0.58203-0.16797 0.875-0.19922 0.15625-0.015625 0.35937-0.035157 0.55078-0.046875-0.25391 0.16406-0.50781 0.33594-0.76562 0.49219zm14.172-67.176v1.9453c-0.5-0.66406-1.0195-1.3086-1.5547-1.9453zm-37.031-14.117c11.469 0 21.918 4.4297 29.742 11.66l-26.766-0.003907v0.085938c-0.90625-0.48828-1.9297-0.79688-3.0312-0.79688-1.1094 0-2.1406 0.30859-3.0547 0.80859l0.003906-0.097657h-26.633c7.8203-7.2266 18.27-11.656 29.738-11.656zm-36.59 14.117h1.1133c-0.38281 0.45312-0.75 0.91797-1.1133 1.3867zm-7.2773 29.75c0-7.1836 1.7461-13.961 4.8203-19.949v39.902c-3.0742-5.9922-4.8203-12.77-4.8203-19.953zm7.2773 43.867v-15.504c5.5195 7.1016 13.047 12.555 21.73 15.504zm73.621 0h-22.172c3.2148-1.0938 6.2812-2.5156 9.1367-4.2539 0.074219-0.03125 0.13672-0.050781 0.21484-0.085937 0.48828-0.21875 1.1523-0.52344 1.6133-1.082 4.3047-2.8984 8.0938-6.5039 11.211-10.641z"/>
</svg>
